<?xml version="1.0" encoding="UTF-8" standalone="no"?>
<svg
   xmlns:svg="http://www.w3.org/2000/svg"
   xmlns="http://www.w3.org/2000/svg"
   viewBox="-0.2 0 240 162"
   id="japan"
   version="1.1"
   viewbox="0 0 241.0361 160"
   xml:space="preserve">
   <path
   d="m 38.47125,112.21615 3.388314,-6.24548 8.560055,-14.649556 m 7.267123,-12.710156 11.798854,-20.690189 25.651146,-44.465628 1.297835,10.089473 9.159773,-2.293669 4.06859,9.174298 9.1399,-9.174298 9.39066,11.432798 12.43245,-7.992295 8.72627,-0.177 8.13909,-11.059315 8.51721,16.208144 m 44.84866,87.182173 13.04248,25.90517 9.48691,18.47078 H 9.893253 l 18.724999,-31.76981"
   style="fill:none;fill-opacity:1;fill-rule:nonzero;stroke:#a467ac;stroke-width:0.94938141;stroke-miterlimit:4;stroke-dasharray:none;stroke-opacity:1"
   id="path194" /><path
   d="m 157.49105,13.455295 -8.13909,11.059311 -8.72588,0.176624 -12.43247,7.992293 -9.39104,-11.432415 -9.13951,9.174299 -4.0686,-9.174299 -9.159768,2.293287 -1.297837,-10.0891 -25.651259,44.465474 9.814997,-2.386565 -2.548648,14.547985 6.626412,-9.521791 5.351895,1.111665 7.900168,-8.540479 v 20.263813 l 6.881,-12.834999 1.52913,11.305885 3.62161,-3.863199 1.97187,6.558901 6.63942,-16.457725 4.36638,11.213372 3.27919,-5.096917 1.9988,8.757121 6.3846,-12.795666 3.33993,3.019011"
   style="fill:none;fill-opacity:1;fill-rule:nonzero;stroke:#a467ac;stroke-width:0.94938141;stroke-miterlimit:4;stroke-dasharray:none;stroke-opacity:1"
   id="path198" /><path
   d="M 37.404372,120.11221 V 107.83457 H 37.162773 V 92.284261 h 3.047902 V 90.005497 H 28.782847 v 2.278764 h 2.336869 v 15.550309 8.1391 4.13854 h -6.36532 l 3.988311,3.67064 v 36.85661 h 2.377009 6.284656 2.377005 v -36.70867 l 4.149633,-3.81858 z"
   style="fill:none;fill-opacity:1;fill-rule:nonzero;stroke:#a467ac;stroke-width:0.94938141;stroke-miterlimit:4;stroke-dasharray:none;stroke-opacity:1"
   id="path262" /><g
   transform="matrix(1.9850701,0,0,-1.9850701,-51.726196,241.75195)"
   id="g266"
   style="fill:none;stroke:#a467ac;stroke-opacity:1" /><path
   id="path278"
   style="fill:none;fill-opacity:1;fill-rule:nonzero;stroke:#a467ac;stroke-width:0.94938141;stroke-miterlimit:4;stroke-dasharray:none;stroke-opacity:1"
   d="m 34.342665,90.005365 h -5.559856 v 2.279143 h 2.336867 v 15.550322 8.1387 4.13856 h -6.365318 l 3.988693,3.67063 v 36.85699 h 2.376625 3.222989 z" /><path
   d="M 97.18789,120.11221 V 107.83457 H 96.946292 V 92.284261 h 3.047905 v -2.278764 h -11.42783 v 2.278764 h 2.336867 v 15.550309 8.1391 4.13854 H 84.53792 l 3.988307,3.67064 v 36.85661 h 2.377007 6.284656 2.377009 v -36.70867 l 4.149641,-3.81858 z"
   style="fill:none;fill-opacity:1;fill-rule:nonzero;stroke:#a467ac;stroke-width:0.94938141;stroke-miterlimit:4;stroke-dasharray:none;stroke-opacity:1"
   id="path282" /><g
   transform="matrix(1.9850701,0,0,-1.9850701,-51.726196,241.75195)"
   id="g286"
   style="fill:none;stroke:#a467ac;stroke-opacity:1" /><path
   id="path298"
   style="fill:none;fill-opacity:1;fill-rule:nonzero;stroke:#a467ac;stroke-width:0.94938141;stroke-miterlimit:4;stroke-dasharray:none;stroke-opacity:1"
   d="m 94.126227,90.005365 h -5.559858 v 2.279143 h 2.336869 v 15.550322 8.1387 4.13856 H 84.53792 l 3.988311,3.67063 v 36.85699 h 2.377007 3.222989 z" /><path
   id="path300"
   style="fill:#703d6c;fill-opacity:1;fill-rule:nonzero;stroke:#a467ac;stroke-width:0.94938141;stroke-miterlimit:4;stroke-dasharray:none;stroke-opacity:1"
   d="M 112.97316,103.02556 H 15.821315 v -2.75585 h 97.151845 z" /><path
   id="path302"
   style="fill:#703d6c;fill-opacity:1;fill-rule:nonzero;stroke:#a467ac;stroke-width:0.94938141;stroke-miterlimit:4;stroke-dasharray:none;stroke-opacity:1"
   d="M 106.29628,106.5731 H 22.498191 v -3.8698 h 83.798089 z" /><path
   d="M 104.42324,81.970846 H 67.781471 61.012852 24.371087 l -7.513297,8.034727 h 44.155062 6.768619 44.155059 z"
   style="fill:none;fill-opacity:1;fill-rule:nonzero;stroke:#a467ac;stroke-width:0.94938141;stroke-miterlimit:4;stroke-dasharray:none;stroke-opacity:1"
   id="path306" /><path
   d="m 19.096831,87.611058 -2.239006,2.394211 h 44.155063 6.768622 44.15507 l -2.23901,-2.394211 z"
   style="fill:none;fill-opacity:1;fill-rule:nonzero;stroke:#a467ac;stroke-width:0.94938141;stroke-miterlimit:4;stroke-dasharray:none;stroke-opacity:1"
   id="path310" /><path
   d="m 64.537533,79.621096 v -0.0077 c 0,0 -0.05007,0.0014 -0.140289,0.0038 -0.09021,-0.0021 -0.140289,-0.0038 -0.140289,-0.0038 v 0.0077 c -3.597635,0.09634 -41.118256,1.031007 -56.337904,-1.509616 0,0 3.985252,6.841635 11.607118,6.841635 l 43.348071,1.630418 c 1.014951,0.03824 2.031047,0.03824 3.045995,0 l 43.348075,-1.630418 c 7.62186,0 11.60712,-6.841635 11.60712,-6.841635 -15.21965,2.540623 -52.740272,1.60595 -56.337897,1.509616"
   style="fill:#703d6c;fill-opacity:1;fill-rule:nonzero;stroke:#a467ac;stroke-width:0.94938141;stroke-miterlimit:4;stroke-dasharray:none;stroke-opacity:1"
   id="path314" /><path
   id="path320"
   style="fill:none;fill-opacity:1;fill-rule:nonzero;stroke:#a467ac;stroke-width:0.94938141;stroke-miterlimit:4;stroke-dasharray:none;stroke-opacity:1"
   d="M 67.942295,100.20017 H 60.851797 V 90.031533 h 7.090498 z" /><path
   d="M 210.55732,157.32484 V 54.725916 H 136.976 V 157.32484 h -3.9325 v 4.20047 h 3.9325 73.58132 3.9325 v -4.20047 z"
   style="fill:none;fill-opacity:1;fill-rule:nonzero;stroke:#a467ac;stroke-width:0.94938141;stroke-miterlimit:4;stroke-dasharray:none;stroke-opacity:1"
   id="path202" /><path
   d="m 173.88139,131.10822 v -0.006 c 0,0 -0.0409,9.4e-4 -0.11468,0.003 -0.0738,-0.002 -0.11468,-0.003 -0.11468,-0.003 v 0.006 c -2.94049,0.0788 -33.60877,0.84293 -46.04849,-1.23399 0,0 3.25739,5.59235 9.487,5.59235 h 36.56149 0.22937 36.56111 c 6.22998,0 9.48738,-5.59235 9.48738,-5.59235 -12.4401,2.07692 -43.10801,1.31274 -46.04849,1.23399"
   style="fill:#703d6c;fill-opacity:1;fill-rule:nonzero;stroke:#a467ac;stroke-width:0.94938141;stroke-miterlimit:4;stroke-dasharray:none;stroke-opacity:1"
   id="path206" /><path
   d="m 173.88139,104.921 v -0.007 c 0,0 -0.0409,0.001 -0.11468,0.004 -0.0738,-0.002 -0.11468,-0.004 -0.11468,-0.004 v 0.007 c -2.94049,0.0788 -33.60877,0.84294 -46.04849,-1.23399 0,0 3.25739,5.59235 9.487,5.59235 h 36.56149 0.22937 36.56111 c 6.22998,0 9.48738,-5.59235 9.48738,-5.59235 -12.4401,2.07693 -43.10801,1.31275 -46.04849,1.23399"
   style="fill:#703d6c;fill-opacity:1;fill-rule:nonzero;stroke:#a467ac;stroke-width:0.94938141;stroke-miterlimit:4;stroke-dasharray:none;stroke-opacity:1"
   id="path210" /><path
   d="m 173.88139,78.733828 v -0.0066 c 0,0 -0.0409,0.001 -0.11468,0.0036 -0.0738,-0.0021 -0.11468,-0.0036 -0.11468,-0.0036 v 0.0066 c -2.94049,0.07876 -33.60877,0.842925 -46.04849,-1.233992 0,0 3.25739,5.592349 9.487,5.592349 h 36.56149 0.22937 36.56111 c 6.22998,0 9.48738,-5.592349 9.48738,-5.592349 -12.4401,2.076917 -43.10801,1.312743 -46.04849,1.233992"
   style="fill:#703d6c;fill-opacity:1;fill-rule:nonzero;stroke:#a467ac;stroke-width:0.94938141;stroke-miterlimit:4;stroke-dasharray:none;stroke-opacity:1"
   id="path214" /><path
   id="path216"
   style="fill:none;fill-opacity:1;fill-rule:nonzero;stroke:#a467ac;stroke-width:0.94938141;stroke-miterlimit:4;stroke-dasharray:none;stroke-opacity:1"
   d="m 206.34507,156.13954 h -65.15706 v -9.27445 h 65.15706 z" /><path
   id="path218"
   style="fill:none;fill-opacity:1;fill-rule:nonzero;stroke:#a467ac;stroke-width:0.94938141;stroke-miterlimit:4;stroke-dasharray:none;stroke-opacity:1"
   d="m 172.20035,143.22771 h -31.01234 v -5.09195 h 31.01234 z" /><path
   id="path220"
   style="fill:none;fill-opacity:1;fill-rule:nonzero;stroke:#a467ac;stroke-width:0.94938141;stroke-miterlimit:4;stroke-dasharray:none;stroke-opacity:1"
   d="m 206.34507,143.22771 h -31.01233 v -5.09195 h 31.01233 z" /><path
   id="path222"
   style="fill:none;fill-opacity:1;fill-rule:nonzero;stroke:#a467ac;stroke-width:0.94938141;stroke-miterlimit:4;stroke-dasharray:none;stroke-opacity:1"
   d="m 206.34507,129.87435 h -65.15706 v -9.27446 h 65.15706 z" /><path
   id="path224"
   style="fill:none;fill-opacity:1;fill-rule:nonzero;stroke:#a467ac;stroke-width:0.94938141;stroke-miterlimit:4;stroke-dasharray:none;stroke-opacity:1"
   d="m 172.20035,116.96251 h -31.01234 v -5.09195 h 31.01234 z" /><path
   id="path226"
   style="fill:none;fill-opacity:1;fill-rule:nonzero;stroke:#a467ac;stroke-width:0.94938141;stroke-miterlimit:4;stroke-dasharray:none;stroke-opacity:1"
   d="m 206.34507,116.96251 h -31.01233 v -5.09195 h 31.01233 z" /><path
   id="path228"
   style="fill:none;fill-opacity:1;fill-rule:nonzero;stroke:#a467ac;stroke-width:0.94938141;stroke-miterlimit:4;stroke-dasharray:none;stroke-opacity:1"
   d="m 206.34507,103.60953 h -65.15706 v -9.274846 h 65.15706 z" /><path
   id="path230"
   style="fill:none;fill-opacity:1;fill-rule:nonzero;stroke:#a467ac;stroke-width:0.94938141;stroke-miterlimit:4;stroke-dasharray:none;stroke-opacity:1"
   d="m 172.20035,90.69769 h -31.01234 v -5.091949 h 31.01234 z" /><path
   id="path232"
   style="fill:none;fill-opacity:1;fill-rule:nonzero;stroke:#a467ac;stroke-width:0.94938141;stroke-miterlimit:4;stroke-dasharray:none;stroke-opacity:1"
   d="m 206.34507,90.69769 h -31.01233 v -5.091949 h 31.01233 z" /><path
   id="path234"
   style="fill:none;fill-opacity:1;fill-rule:nonzero;stroke:#a467ac;stroke-width:0.94938141;stroke-miterlimit:4;stroke-dasharray:none;stroke-opacity:1"
   d="m 206.34507,77.344322 h -65.15706 v -9.274836 h 65.15706 z" /><path
   id="path236"
   style="fill:none;fill-opacity:1;fill-rule:nonzero;stroke:#a467ac;stroke-width:0.94938141;stroke-miterlimit:4;stroke-dasharray:none;stroke-opacity:1"
   d="m 172.20035,64.432487 h -31.01234 v -5.091939 h 31.01234 z" /><path
   id="path238"
   style="fill:none;fill-opacity:1;fill-rule:nonzero;stroke:#a467ac;stroke-width:0.94938141;stroke-miterlimit:4;stroke-dasharray:none;stroke-opacity:1"
   d="m 206.34507,64.432487 h -31.01233 v -5.091939 h 31.01233 z" /><path
   d="M 220.12843,51.312781 C 180.14632,41.596794 173.96525,16.56788 173.96525,16.56788 l -0.0994,2.418675 -0.099,-2.418675 c 0,0 -6.18145,25.028914 -46.16318,34.744901 0,0 3.2574,5.591967 9.487,5.591967 h 36.5615 c 12.26349,0 24.52698,0 36.79047,0 5.71813,0 8.93004,-4.70814 9.41935,-5.481871 z"
   style="fill:#703d6c;fill-opacity:1;fill-rule:nonzero;stroke:#a467ac;stroke-width:0.94938141;stroke-miterlimit:4;stroke-dasharray:none;stroke-opacity:1"
   id="path242" /></svg>