<?xml version="1.0" encoding="UTF-8" standalone="no"?>
<svg
   xmlns:svg="http://www.w3.org/2000/svg"
   xmlns="http://www.w3.org/2000/svg"
   viewBox="0 0 150 162.61522"
   width="150"
   height=" 162.61522"
   version="1.1"
   id="london-eye">
  <path
     id="base"
     d="m 79.743536,78.597449 c 0,2.545079 -2.123788,4.608091 -4.743537,4.608091 -2.619748,0 -4.743537,-2.063012 -4.743537,-4.608091 0,-2.544724 2.123789,-4.608091 4.743537,-4.608091 2.619749,0 4.743537,2.063367 4.743537,4.608091 z m -6.471221,4.450199 1.50558,0.01801 c 0,0 -2.214437,20.654782 -8.812951,79.283562 l -7.707117,-0.14518 m 18.112476,-79.225901 -1.541699,0.01801 c 0,0 3.185512,24.816921 9.812156,79.554451 l 7.101413,-0.42024 z"
     style="fill:#a467ac;stroke:#a467ac;stroke-width:1" />
  <path
     id="cabins"
     style="opacity:0.98999999;fill:none;stroke:#a467ac;stroke-width:1;stroke-miterlimit:4;stroke-dasharray:none"
     d="m 70.786861,141.88926 c 0,1.99052 -1.661186,3.60413 -3.710469,3.60413 -2.04898,0 -3.71016,-1.61361 -3.71016,-3.60413 0,-1.9908 1.661183,-3.60442 3.71016,-3.60442 2.049283,0 3.710469,1.61362 3.710469,3.60442 z M 73.787058,14.748405 c 0,1.990819 -1.661182,3.604431 -3.710163,3.604431 -2.049282,0 -3.710467,-1.613612 -3.710467,-3.604431 0,-1.990511 1.661185,-3.604422 3.710467,-3.604422 2.048981,0 3.710163,1.613911 3.710163,3.604422 z m -25.68877,7.013739 c 0,1.990818 -1.66118,3.60443 -3.710466,3.60443 -2.04898,0 -3.710162,-1.613612 -3.710162,-3.60443 0,-1.990502 1.661182,-3.604123 3.710162,-3.604123 2.049286,0 3.710466,1.613621 3.710466,3.604123 z m -10.655431,6.616857 c 0,1.990501 -1.661179,3.604421 -3.710462,3.604421 -2.048979,0 -3.710161,-1.61392 -3.710161,-3.604421 0,-1.990819 1.661182,-3.604431 3.710161,-3.604431 2.049283,0 3.710462,1.613612 3.710462,3.604431 z m -8.7346,8.231673 c 0,1.99081 -1.661182,3.604431 -3.710162,3.604431 -2.049286,0 -3.710466,-1.613621 -3.710466,-3.604431 0,-1.99051 1.66118,-3.604122 3.710466,-3.604122 2.04898,0 3.710162,1.613612 3.710162,3.604122 z M 13.596148,69.446498 c 0,1.99081 -1.661183,3.604422 -3.7104644,3.604422 -2.0489837,0 -3.7101661,-1.613612 -3.7101661,-3.604422 0,-1.99051 1.6611824,-3.60443 3.7101661,-3.60443 2.0492814,0 3.7104644,1.61392 3.7104644,3.60443 z m 1.223992,24.437504 c 0,1.99081 -1.661179,3.604422 -3.710464,3.604422 -2.0489776,0 -3.7101631,-1.613612 -3.7101631,-3.604422 0,-1.99051 1.6611855,-3.604122 3.7101631,-3.604122 2.049285,0 3.710464,1.613612 3.710464,3.604122 z m 6.813785,-47.514684 c 0,1.990511 -1.661185,3.604431 -3.710166,3.604431 -2.049282,0 -3.710464,-1.61392 -3.710464,-3.604431 0,-1.990809 1.661182,-3.604421 3.710464,-3.604421 2.048981,0 3.710166,1.613612 3.710166,3.604421 z m 23.411878,87.413432 c 0,1.99051 -1.660877,3.60412 -3.710163,3.60412 -2.04898,0 -3.710159,-1.61361 -3.710159,-3.60412 0,-1.99081 1.661179,-3.60442 3.710159,-3.60442 2.049286,0 3.710163,1.61361 3.710163,3.60442 z m 64.963297,0.97658 c 0,1.99081 -1.66029,3.60443 -3.71137,3.60443 -2.0481,0 -3.70835,-1.61362 -3.70835,-3.60443 0,-1.99051 1.66025,-3.60443 3.70835,-3.60443 2.05108,0 3.71137,1.61392 3.71137,3.60443 z M 16.392554,57.567069 c 0,1.990809 -1.661182,3.604421 -3.710465,3.604421 -2.048984,0 -3.7101624,-1.613612 -3.7101624,-3.604421 0,-1.990511 1.6611784,-3.604431 3.7101624,-3.604431 2.049283,0 3.710465,1.61392 3.710465,3.604431 z m 2.444962,47.857031 c 0,1.99082 -1.661183,3.60443 -3.710469,3.60443 -2.04898,0 -3.710159,-1.61361 -3.710159,-3.60443 0,-1.99051 1.661182,-3.60442 3.710159,-3.60442 2.049286,0 3.710469,1.61391 3.710469,3.60442 z m 6.421174,10.45316 c 0,1.99052 -1.661186,3.60413 -3.710469,3.60413 -2.04898,0 -3.710159,-1.61361 -3.710159,-3.60413 0,-1.9908 1.661182,-3.60442 3.710159,-3.60442 2.049283,0 3.710469,1.61362 3.710469,3.60442 z m 8.824434,9.57331 c 0,1.99051 -1.661176,3.60412 -3.710461,3.60412 -2.048983,0 -3.710162,-1.61361 -3.710162,-3.60412 0,-1.99081 1.661182,-3.60442 3.710162,-3.60442 2.049285,0 3.710461,1.61361 3.710461,3.60442 z m 87.294336,2.11756 c 0,1.9905 -1.66025,3.60442 -3.71137,3.60442 -2.04806,0 -3.70835,-1.61392 -3.70835,-3.60442 0,-1.99081 1.66029,-3.60443 3.70835,-3.60443 2.05112,0 3.71137,1.61362 3.71137,3.60443 z m 9.60719,-9.9283 c 0,1.99081 -1.66028,3.60442 -3.71138,3.60442 -2.04806,0 -3.70834,-1.61361 -3.70834,-3.60442 0,-1.99051 1.66028,-3.60443 3.70834,-3.60443 2.0511,0 3.71138,1.61392 3.71138,3.60443 z m 7.07433,-10.94326 c 0,1.99051 -1.66029,3.60443 -3.71137,3.60443 -2.0481,0 -3.70835,-1.61392 -3.70835,-3.60443 0,-1.9905 1.66025,-3.60442 3.70835,-3.60442 2.05108,0 3.71137,1.61392 3.71137,3.60442 z M 12.723597,81.49558 c 0,1.990818 -1.66118,3.60443 -3.7104649,3.60443 -2.0489832,0 -3.7101628,-1.613612 -3.7101628,-3.60443 0,-1.990502 1.6611825,-3.604422 3.7101628,-3.604422 2.0492849,0 3.7104649,1.61392 3.7104649,3.604422 z M 144.43646,70.125144 c 0,1.99051 -1.66327,3.604122 -3.71137,3.604122 -2.04806,0 -3.71137,-1.613612 -3.71137,-3.604122 0,-1.99081 1.66331,-3.604422 3.71137,-3.604422 2.0481,0 3.71137,1.613612 3.71137,3.604422 z m -1.92384,24.522344 c 0,1.990809 -1.66028,3.604421 -3.70835,3.604421 -2.05108,0 -3.71137,-1.613612 -3.71137,-3.604421 0,-1.990819 1.66029,-3.604431 3.71137,-3.604431 2.04807,0 3.70835,1.613612 3.70835,3.604431 z m -1.1331,-37.080419 c 0,1.990809 -1.66332,3.604421 -3.71138,3.604421 -2.04807,0 -3.71137,-1.613612 -3.71137,-3.604421 0,-1.990511 1.6633,-3.604431 3.71137,-3.604431 2.04806,0 3.71138,1.61392 3.71138,3.604431 z m -4.89298,-10.519096 c 0,1.990809 -1.66025,3.604431 -3.70832,3.604431 -2.05111,0 -3.71137,-1.613622 -3.71137,-3.604431 0,-1.990539 1.66026,-3.604431 3.71137,-3.604431 2.04807,0 3.70832,1.61392 3.70832,3.604431 z m -7.59845,-10.352468 c 0,1.990809 -1.66028,3.604431 -3.70835,3.604431 -2.05111,0 -3.71137,-1.613622 -3.71137,-3.604431 0,-1.990511 1.66026,-3.604123 3.71137,-3.604123 2.04807,0 3.70835,1.613612 3.70835,3.604123 z m -8.5589,-8.146843 c 0,1.990511 -1.66025,3.604422 -3.71137,3.604422 -2.04807,0 -3.70832,-1.613911 -3.70832,-3.604422 0,-1.990818 1.66025,-3.60443 3.70832,-3.60443 2.05112,0 3.71137,1.613612 3.71137,3.60443 z m -10.65543,-6.701678 c 0,1.990501 -1.66026,3.604122 -3.71137,3.604122 -2.04807,0 -3.70832,-1.613621 -3.70832,-3.604122 0,-1.990819 1.66025,-3.604431 3.70832,-3.604431 2.05111,0 3.71137,1.613612 3.71137,3.604431 z M 98.145789,17.266081 c 0,1.990809 -1.661184,3.604431 -3.710149,3.604431 -2.049289,0 -3.710471,-1.613622 -3.710471,-3.604431 0,-1.990511 1.661182,-3.604123 3.710471,-3.604123 2.048965,0 3.710149,1.613612 3.710149,3.604123 z M 59.53841,17.435742 c 0,1.990511 -1.66118,3.604123 -3.710163,3.604123 -2.049286,0 -3.710465,-1.613612 -3.710465,-3.604123 0,-1.990809 1.661179,-3.604421 3.710465,-3.604421 2.048983,0 3.710163,1.613612 3.710163,3.604421 z m 85.15862,65.162655 c 0,1.990501 -1.66029,3.604421 -3.71137,3.604421 -2.04806,0 -3.70835,-1.61392 -3.70835,-3.604421 0,-1.990511 1.66029,-3.604431 3.70835,-3.604431 2.05108,0 3.71137,1.61392 3.71137,3.604431 z M 86.439057,14.975634 c 0,1.990511 -1.661184,3.604422 -3.710475,3.604422 -2.048962,0 -3.710144,-1.613911 -3.710144,-3.604422 0,-1.990809 1.661182,-3.604431 3.710144,-3.604431 2.049291,0 3.710475,1.613622 3.710475,3.604431 z M 97.120467,139.6341 c 0,1.9905 -1.660886,3.60412 -3.710174,3.60412 -2.048962,0 -3.710145,-1.61362 -3.710145,-3.60412 0,-1.99082 1.661183,-3.60443 3.710145,-3.60443 2.049288,0 3.710174,1.61361 3.710174,3.60443 z M 57.37312,139.094 c 0,1.9905 -1.661186,3.60412 -3.710469,3.60412 -2.04898,0 -3.710159,-1.61362 -3.710159,-3.60412 0,-1.99081 1.661182,-3.60443 3.710159,-3.60443 2.049283,0 3.710469,1.61362 3.710469,3.60443 z m 26.699925,3.1609 c 0,1.99051 -1.661182,3.60412 -3.710474,3.60412 -2.048962,0 -3.710139,-1.61361 -3.710139,-3.60412 0,-1.99081 1.661177,-3.60442 3.710139,-3.60442 2.049292,0 3.710474,1.61361 3.710474,3.60442 z M 55.009048,29.439538 l -5.494608,-4.58318 0.427387,6.96389 -5.311614,-4.285326 0.427383,6.666035 -4.945325,-4.047288 1.038061,6.725843 -5.311615,-3.03562 1.77034,5.951913 -6.715663,-1.726088 2.930598,5.416329 -6.28858,-1.250022 3.174687,5.535348 -6.959754,-0.95243 4.151354,5.237792 H 21.30793 l 4.273849,3.571214 -6.410475,1.130696 4.395747,3.511694 -6.593769,1.964135 4.823131,3.749741 -5.616804,2.797275 5.189417,2.499728 -6.593769,3.452195 5.128623,0.952457 -5.372714,4.582881 5.983093,0.71442 -5.372714,4.999456 6.593769,0.297556 -5.677902,5.059255 6.593769,-0.119019 -5.189416,4.761419 7.265246,0.119019 -4.82343,4.880434 6.593769,-0.71413 -4.517943,6.428 7.204448,-2.26168 -4.151654,7.38045 6.960054,-2.9758 -2.56431,8.63017 6.898956,-3.92827 -2.014722,8.68969 7.143043,-4.34485 -1.281853,8.57066 6.288278,-4.88042 -0.549579,8.98723 6.227481,-6.07094 1.15996,8.7495 5.738999,-6.18996 1.648443,8.74919 4.945326,-7.08291 2.503214,8.21391 3.723967,-7.73752 4.02946,8.21359 2.564298,-8.15408 4.090561,7.6185 2.319915,-8.63048 5.250518,7.14242 1.099163,-8.51145 5.983095,6.4878 0.244104,-8.74918 6.349088,5.95161 -0.48821,-9.28479 6.65488,5.23749 -1.40463,-8.51115 6.22659,4.64239 -1.70718,-8.98723 7.20294,3.45219 -2.56372,-8.74949 7.38862,2.85709 -3.90844,-7.85655 7.75401,2.38071 -5.25022,-7.737519 8.11943,0.714121 -5.92111,-6.070941 7.26288,-0.357056 -6.10382,-5.356512 7.69115,-1.964135 -6.89748,-4.583189 7.32576,-1.844808 -6.71477,-3.392685 6.77467,-1.845116 -7.50844,-2.559536 6.65487,-4.04699 -8.18231,-0.65491 6.16667,-4.463863 h -6.77467 l 5.57445,-4.523372 -7.46728,0.238037 5.49282,-5.713866 -7.07477,1.689128 4.51105,-5.676916 -7.75401,0.714121 3.54307,-6.844563 -7.32873,2.797275 2.80928,-7.796731 -6.40927,3.749434 1.82994,-7.975558 -6.34938,4.64269 0.42831,-8.689978 -5.40297,5.267547 -1.03325,-8.756711 -6.301762,4.797782 -1.29534,-7.827988 -4.835111,5.976264 -1.035975,-7.323055 -4.489775,6.481496 -2.33129,-7.407213 -2.676623,6.397048 -3.367279,-6.723771 -2.244744,6.723771 -4.489787,-6.31289 -0.604688,6.733664 -5.784826,-5.63934 -0.34532,7.07029 -5.353245,-5.134407 -0.791876,6.927527 h 2.99e-4 z m 81.307242,48.872078 c 0,32.896564 -27.45201,59.564724 -61.316297,59.564724 -33.864286,0 -61.316275,-26.66816 -61.316275,-59.564724 0,-32.896566 27.452291,-59.564736 61.316275,-59.564736 33.863987,0 61.316297,26.668478 61.316297,59.564736 z m -8.61854,-0.781779 c 0,28.479893 -23.76667,51.568293 -53.082879,51.568293 -29.317114,0 -53.082884,-23.08779 -53.082884,-51.568293 0,-28.479892 23.766068,-51.568291 53.082884,-51.568291 29.316509,0 53.082879,23.087802 53.082879,51.568291 z M 47.666911,33.49545 102.50897,121.30741 M 102.18576,33.279962 46.804953,121.19966 M 21.287935,77.329068 127.82898,77.786196 M 120.28686,51.919805 28.488344,102.99081 M 121.13034,102.0211 28.436058,52.276833 M 74.818585,25.84557 75.034075,129.06503 M 36.389054,41.76344 113.41956,112.50198 M 59.854659,28.35452 90.024708,126.48341 M 23.894379,64.619541 125.68025,90.523134 h 0.60949 M 23.284884,90.827886 125.07076,64.010046 M 88.500977,28.35452 59.854659,126.78816 M 36.389054,112.76975 112.88082,42.068182 Z" />
</svg>
