<?xml version="1.0" encoding="UTF-8" standalone="no"?>
<!-- Created with Inkscape (http://www.inkscape.org/) -->

<svg
   xmlns:svg="http://www.w3.org/2000/svg"
   xmlns="http://www.w3.org/2000/svg"
   version="1.1"
   width="645.46875"
   height="641.0625"
   viewBox="0 0 645.46875 641.0625">

  <path
     d="m 457.90082,320.53126 c 0,74.65035 -60.51608,135.16643 -135.16646,135.16643 -74.65036,0 -135.16643,-60.51608 -135.16643,-135.16643 0,-74.6504 60.51607,-135.16646 135.16643,-135.16646 74.65038,0 135.16646,60.51606 135.16646,135.16646 z"
     style="fill:#a467ac;fill-opacity:1;fill-rule:nonzero;stroke:#a467ac;stroke-width:1.16617787;stroke-linecap:butt;stroke-linejoin:round;stroke-miterlimit:4;stroke-opacity:1;stroke-dashoffset:0" />
  <path
     d="M 332.4375,0.5000047 300.15625,150.6875 c 8.19365,-1.22068 16.59156,-1.875 25.125,-1.875 12.53401,0 24.74387,1.38008 36.5,3.96875 L 332.4375,0.5000047 z M 107.40625,86.718755 188.75,218.25 c 12.38846,-16.95556 27.83468,-31.56369 45.5625,-42.90625 L 107.40625,86.718755 z M 558.5,96.968755 424.53125,181.0625 c 17.7721,12.92236 32.93487,29.20022 44.53125,47.9375 L 558.5,96.968755 z M 160.75,279 0.5,309.65625 157.96875,341.75 c -1.10814,-7.81748 -1.6875,-15.81403 -1.6875,-23.9375 0,-13.35976 1.53826,-26.347 4.46875,-38.8125 z m 331.9375,15.71875 c 1.03222,7.55205 1.5625,15.25829 1.5625,23.09375 0,12.44676 -1.35252,24.56936 -3.90625,36.25 l 154.625,-28.09375 -152.28125,-31.25 z M 181.34375,406.40625 91.09375,539.75 226.9375,455.25 C 208.691,442.17282 193.16081,425.56367 181.34375,406.40625 z M 461.5,417.84375 c -12.75795,17.34781 -28.75665,32.15497 -47.09375,43.5625 L 547.21875,553 461.5,417.84375 z M 285.5625,482.75 l 30.53125,157.8125 35.1875,-155.78125 c -8.4815,1.31075 -17.15139,2.03125 -26,2.03125 -12.6717,0 -25.03119,-1.41822 -36.90625,-4.0625 l -2.8125,0 z"
     style="fill:#a467ac;fill-opacity:1;stroke:#a467ac;stroke-width:1px;stroke-linecap:butt;stroke-linejoin:miter;stroke-opacity:1" />
</svg>
