<svg id="londonEye"  xmlns="http://www.w3.org/2000/svg" viewBox="0 0 480 520" height="100%" width="100%" version="1.1">
	<path id="center" d="m254.70418,239.32314c0,8.50262-7.09518,15.39476-15.84727,15.39476s-15.84727-6.89214-15.84727-15.39476c0-8.50146,7.09518-15.39476,15.84727-15.39476s15.84727,6.8933,15.84727,15.39476zm-21.61914,14.86728,5.02986,0.0603s-7.39802,69.00375-29.44242,264.87155l-25.74804-0.48501m60.5104-264.67893-5.15053,0.0603s10.6422,82.9087,32.78058,265.77658l23.72449-1.40396" stroke="#63396e" stroke-width="0.40958318" fill="#63396e"/>
	<path id="wheel" fill="none" stroke="#63396e" d="m172.07088,75.095761-18.35646-15.31155,1.42782,23.26505-17.74511-14.31649,1.42781,22.26998-16.52141-13.52124,3.46797,22.4698-17.74511-10.14143,5.91437,19.884229-22.435774-5.76656,9.790584,18.09494-21.008974-4.17607,10.60604,18.49256-23.25124-3.1819,13.8689,17.4985h-22.02855l14.27813,11.93074-21.4162,3.77744,14.68537,11.73193-22.02855,6.56181,16.11318,12.52718-18.76469,9.34518,17.33687,8.35112-22.02855,11.53312,17.13377,3.182-17.94923,15.31055,19.98839,2.38675-17.94923,16.70224,22.02855,0.99406-18.96881,16.90205,22.02855-0.39762-17.33687,15.90699,24.27183,0.39762-16.11418,16.30462,22.02855-2.38575-15.0936,21.47473,24.06871-7.55587-13.8699,24.65674,23.25224-9.94162-8.56688,28.8318,23.048124-13.12362-6.73081,29.03061,23.86357-14.51531-4.28243,28.63299,21.00796-16.30462-1.83604,30.02467,20.80485-20.28186,3.87521,29.23042,19.17292-20.67949,5.50714,29.22942,16.52141-23.66267,8.36277,27.44111,12.44108-25.84961,13.46167,27.44011,8.56684-27.2413,13.6658,25.45199,7.7504-28.8328,17.541,23.86149,3.6721-28.43518,19.9884,21.67455,0.8155-29.22941,21.2111,19.88323-1.631-31.01873,22.2327,17.49749-4.6926-28.43417,20.8019,15.50936-5.7034-30.02466,24.0637,11.53311-8.5649-29.23042,24.684,9.545-13.0574-26.24724,25.9047,7.9535-17.54-25.84961,27.1255,2.38575-19.7813-20.28187,24.2639-1.19287-20.3917-17.89511,25.6947-6.56181-23.0432-15.31156,24.474-6.16318-22.4328-11.3343,22.6329-6.16419-25.0843-8.55093,22.2327-13.52024-27.3356-2.18794,20.6017-14.91293h-22.6329l18.6232-15.11174-24.9468,0.79525,18.3505-19.08899-23.6355,5.64309,15.0706-18.96553-25.9047,2.38575,11.8367-22.86642-24.4839,9.34518,9.3853-26.047429-21.4122,12.526169,6.1135-26.644839-21.2121,15.51035,1.4309-29.0316-18.0503,17.5979-3.4519-29.25452-21.053,16.02848-4.3275-26.15184-16.1532,19.96557-3.461-24.46495-14.9995,21.65346-7.7884-24.7461-8.9421,21.37132-11.24945-22.46284-7.49927,22.46284-14.99954-21.09017-2.02015,22.49591-19.32602-18.83997-1.15365,23.6205-17.88419-17.15308-2.64551,23.14355h0.001zm362.192854,87.71265c0,109.90127-91.712,198.99462-204.84626,198.99462-113.13425,0-204.846213-89.09335-204.846213-198.99462,0-109.90128,91.712973-198.994641,204.846213-198.994641,113.13326,0,204.84626,89.094371,204.84626,198.994641zm-28.7929-2.61178c0,95.146-79.4,172.28-177.33998,172.28-97.943,0-177.339992-77.132-177.339992-172.28,0-95.146,79.397992-172.280021,177.339992-172.280021,97.94098,0,177.33998,77.132021,177.33998,172.280021zm-267.36808-147.110668,183.21708,293.363348m-1.0798-294.083258-185.01692,293.723298m-85.247583-146.56345,355.933703,1.52716m-25.1968-86.41478-306.681683,170.61867m309.499583-3.23959-309.674262-166.18629m154.955352-88.301915,0.71991,344.836905m-129.10579-291.65829,257.34449,236.32422m-178.95029-281.120919,100.79249,327.830299m-220.929062-206.67562l340.047562,86.53906h2.0362m-344.119973,1.01811,340.047573-89.59338m-122.1728-119.118469-95.70199,328.848409m-78.3942-46.8329,255.54469-236.20071"/>
	<path id="cabins " opacity="0.98999999" d="m224.7816,450.76927c0,6.64991-5.54971,12.04069-12.39598,12.04069-6.84526,0-12.39495-5.39078-12.39495-12.04069,0-6.65093,5.5497-12.04172,12.39495-12.04172,6.84627,0,12.39598,5.39079,12.39598,12.04172zm10.0231-424.753841c0,6.65093-5.5497,12.04171-12.39496,12.04171-6.84627,0-12.39598-5.39078-12.39598-12.04171,0-6.64993,5.54971-12.04172,12.39598-12.04172,6.84526,0,12.39496,5.39179,12.39496,12.04172zm-85.82138,23.43159c0,6.65093-5.54969,12.04172-12.39597,12.04172-6.84526,0-12.39496-5.39079-12.39496-12.04172,0-6.64991,5.5497-12.0407,12.39496-12.0407,6.84628,0,12.39597,5.39079,12.39597,12.0407zm-35.5978,22.10566c0,6.64991-5.54969,12.04171-12.39596,12.04171-6.845257,0-12.394957-5.3918-12.394957-12.04171,0-6.65093,5.5497-12.04172,12.394957-12.04172,6.84627,0,12.39596,5.39079,12.39596,12.04172zm-29.180666,27.500488c0,6.650933-5.5497,12.041723-12.39496,12.041723-6.84628,0-12.39597-5.39079-12.39597-12.041723,0-6.649908,5.54969-12.040698,12.39597-12.040698,6.84526,0,12.39496,5.39079,12.39496,12.040698zm-50.486731,109.698343c0,6.65093-5.549699,12.04171-12.395969,12.04171-6.84527,0-12.3949701-5.39078-12.3949701-12.04171,0-6.64992,5.5497001-12.04171,12.3949701-12.04171,6.846269,0,12.395969,5.39179,12.395969,12.04171zm4.089131,81.64114c0,6.65093-5.54969,12.04171-12.39597,12.04171-6.84525,0-12.39496-5.39078-12.39496-12.04171,0-6.64992,5.54971-12.0407,12.39496-12.0407,6.84628,0,12.39597,5.39078,12.39597,12.0407zm22.76358-158.73766c0,6.64992-5.54971,12.04172-12.394971,12.04172-6.846269,0-12.39597-5.3918-12.39597-12.04172,0-6.65093,5.549701-12.04171,12.39597-12.04171,6.84526,0,12.394971,5.39078,12.394971,12.04171zm78.214706,292.03193c0,6.64991-5.54868,12.0407-12.39496,12.0407-6.84526,0-12.39495-5.39079-12.39495-12.0407,0-6.65093,5.54969-12.04171,12.39495-12.04171,6.84628,0,12.39496,5.39078,12.39496,12.04171zm217.03022,3.26256c0,6.65093-5.5467,12.04172-12.399,12.04172-6.8423,0-12.3889-5.39079-12.3889-12.04172,0-6.64991,5.5466-12.0417,12.3889-12.0417,6.8523,0,12.399,5.39179,12.399,12.0417zm-312.755367-257.88492c0,6.65093-5.5497,12.04172-12.39597,12.04172-6.84527,0-12.394959-5.39079-12.394959-12.04172,0-6.64991,5.549689-12.04171,12.394959-12.04171,6.84627,0,12.39597,5.3918,12.39597,12.04171zm8.16816,159.88141c0,6.65093-5.5497,12.04171-12.39598,12.04171-6.84526,0-12.39495-5.39078-12.39495-12.04171,0-6.64992,5.5497-12.04171,12.39495-12.04171,6.84628,0,12.39598,5.39179,12.39598,12.04171zm21.45194,34.92207c0,6.64991-5.54971,12.04069-12.39598,12.04069-6.84526,0-12.39495-5.39078-12.39495-12.04069,0-6.65093,5.5497-12.04172,12.39495-12.04172,6.84627,0,12.39598,5.39079,12.39598,12.04172zm29.480787,31.98261c0,6.64992-5.549677,12.0407-12.395957,12.0407-6.84527,0-12.39496-5.39078-12.39496-12.0407,0-6.65092,5.5497-12.04171,12.39496-12.04171,6.84628,0,12.395957,5.39079,12.395957,12.04171zm291.63408,7.07438c0,6.64991-5.5466,12.0417-12.399,12.0417-6.8422,0-12.3889-5.39179-12.3889-12.0417,0-6.65093,5.5467-12.04172,12.3889-12.04172,6.8524,0,12.399,5.39079,12.399,12.04172zm32.0958-33.16862c0,6.65093-5.5467,12.04172-12.399,12.04172-6.8422,0-12.3889-5.39079-12.3889-12.04172,0-6.64991,5.5467-12.04171,12.3889-12.04171,6.8523,0,12.399,5.3918,12.399,12.04171zm23.634-36.55936c0,6.64992-5.5467,12.04172-12.399,12.04172-6.8423,0-12.3889-5.3918-12.3889-12.04172,0-6.64991,5.5466-12.04171,12.3889-12.04171,6.8523,0,12.399,5.3918,12.399,12.04171zm-418.722067-84.19179c0,6.65094-5.54969,12.04172-12.395969,12.04172-6.84527,0-12.3949601-5.39078-12.3949601-12.04172,0-6.64991,5.5497001-12.0417,12.3949601-12.0417,6.846279,0,12.395969,5.39179,12.395969,12.0417zm440.028067-37.98651c0,6.64992-5.5567,12.0407-12.399,12.0407-6.8422,0-12.399-5.39078-12.399-12.0407,0-6.65092,5.5568-12.04171,12.399-12.04171,6.8423,0,12.399,5.39079,12.399,12.04171zm-6.4272,81.92455c0,6.65093-5.5467,12.04171-12.3889,12.04171-6.8523,0-12.399-5.39078-12.399-12.04171s5.5467-12.04172,12.399-12.04172c6.8422,0,12.3889,5.39079,12.3889,12.04172zm-3.7855-123.87874c0,6.65093-5.5568,12.04172-12.399,12.04172s-12.399-5.39079-12.399-12.04172c0-6.64991,5.5568-12.04171,12.399-12.04171s12.399,5.3918,12.399,12.04171zm-16.3465-35.14233c0,6.65093-5.5466,12.04172-12.3888,12.04172-6.8524,0-12.399-5.39079-12.399-12.04172,0-6.65001,5.5466-12.04171,12.399-12.04171,6.8422,0,12.3888,5.3918,12.3888,12.04171zm-25.385-34.585653c0,6.650933-5.5467,12.041713-12.3889,12.041713-6.8524,0-12.399-5.39078-12.399-12.041713,0-6.649918,5.5466-12.040698,12.399-12.040698,6.8422,0,12.3889,5.39078,12.3889,12.040698zm-28.5937-27.217088c0,6.64992-5.5466,12.04172-12.399,12.04172-6.8422,0-12.3888-5.3918-12.3888-12.04172,0-6.65093,5.5466-12.04171,12.3888-12.04171,6.8524,0,12.399,5.39078,12.399,12.04171zm-35.5978-22.38906c0,6.64991-5.5466,12.0407-12.399,12.0407-6.8422,0-12.3888-5.39079-12.3888-12.0407,0-6.65093,5.5466-12.04172,12.3888-12.04172,6.8524,0,12.399,5.39079,12.399,12.04172zm-38.5128-15.30392c0,6.65092-5.5497,12.04171-12.3949,12.04171-6.8463,0-12.396-5.39079-12.396-12.04171,0-6.64992,5.5497-12.0407,12.396-12.0407,6.8452,0,12.3949,5.39078,12.3949,12.0407zm-128.98003,0.56681c0,6.64991-5.54969,12.0407-12.39496,12.0407-6.84628,0-12.39597-5.39079-12.39597-12.0407,0-6.65093,5.54969-12.04171,12.39597-12.04171,6.84527,0,12.39496,5.39078,12.39496,12.04171zm284.49903,217.696221c0,6.64992-5.5467,12.04171-12.399,12.04171-6.8422,0-12.3889-5.39179-12.3889-12.04171,0-6.64991,5.5467-12.04171,12.3889-12.04171,6.8523,0,12.399,5.3918,12.399,12.04171zm-194.629-225.914991c0,6.64991-5.5497,12.04171-12.396,12.04171-6.8452,0-12.3949-5.3918-12.3949-12.04171,0-6.65093,5.5497-12.04172,12.3949-12.04172,6.8463,0,12.396,5.39079,12.396,12.04172zm35.6846,416.460611c0,6.64991-5.5487,12.0407-12.395,12.0407-6.8452,0-12.3949-5.39079-12.3949-12.0407,0-6.65093,5.5497-12.04171,12.3949-12.04171,6.8463,0,12.395,5.39078,12.395,12.04171zm-132.78846-1.80437c0,6.64991-5.54971,12.04069-12.39598,12.04069-6.84526,0-12.39495-5.39078-12.39495-12.04069,0-6.65093,5.5497-12.04172,12.39495-12.04172,6.84627,0,12.39598,5.39079,12.39598,12.04172zm89.19946,10.55999c0,6.64992-5.5497,12.0407-12.396,12.0407-6.8452,0-12.39488-5.39078-12.39488-12.0407,0-6.65092,5.54968-12.04171,12.39488-12.04171,6.8463,0,12.396,5.39079,12.396,12.04171z" stroke="#63396e" stroke-miterlimit="4" stroke-dasharray="none" stroke-width="2.02432775" fill="#63396e"/>
</svg>
