<?xml version="1.0" encoding="UTF-8" standalone="no"?>
<svg
   xmlns:svg="http://www.w3.org/2000/svg"
   xmlns="http://www.w3.org/2000/svg"
   id="windmill"
   version="1.1"
   viewBox="0 0 240 162">
  
  <path
     id="path4014"
     style="fill:none;fill-opacity:1;fill-rule:nonzero;stroke:#a467ac;stroke-width:0.90276843;stroke-miterlimit:4;stroke-dasharray:none;stroke-opacity:1"
     d="m 114.44376,120.80464 h 11.78195 v 0.27433 h -11.78195 z m 6.02834,6.89017 h -0.27473 v -13.70579 h 0.27473 z m 5.75364,-1.6e-4 v -7.84226 c 0,-3.23988 -2.65088,-5.89095 -5.89098,-5.89095 -3.2401,0 -5.89098,2.65107 -5.89098,5.89095 v 7.84226 z m -11.78198,-25.49839 h 11.78195 v 0.27433 h -11.78195 z m 6.02834,6.89001 h -0.27473 V 95.380492 h 0.27473 z m 5.75364,1.6e-4 v -7.84226 c 0,-3.240034 -2.65088,-5.890956 -5.89098,-5.890956 -3.2401,0 -5.89098,2.650922 -5.89098,5.890956 v 7.84226 z M 114.44376,83.588042 h 11.78195 v 0.27433 h -11.78195 z m 6.02834,6.890011 h -0.27473 V 76.772271 h 0.27473 z m 5.75364,0 v -7.842105 c 0,-3.240033 -2.65088,-5.890955 -5.89098,-5.890955 -3.2401,0 -5.89098,2.650922 -5.89098,5.890955 v 7.842105 z M 114.44376,64.979666 h 11.78195 v 0.274329 h -11.78195 z m 6.02834,6.890166 h -0.27473 V 58.164049 h 0.27473 z m 5.75364,0 v -7.84195 c 0,-3.240188 -2.65088,-5.891421 -5.89098,-5.891421 -3.2401,0 -5.89098,2.651233 -5.89098,5.891421 v 7.84195 z m 16.28381,71.847218 h 8.46585 v 1.33445 h -8.46585 z m 8.48679,6.96936 h -8.50751 v -12.60412 h 8.50751 z m -61.302264,-6.96936 h 8.465847 v 1.33445 h -8.465847 z m 8.486575,6.96936 h -8.507516 v -12.60412 h 8.507516 z m 31.487729,10.86221 v -8.10729 c 0,-6.28416 -4.20016,-11.42575 -9.33356,-11.42575 -5.13361,0 -9.33377,5.14159 -9.33377,11.42575 v 8.10729 z m 2.23092,0 v -8.97259 c 0,-6.95526 -5.20397,-12.64582 -11.56461,-12.64582 -6.36042,0 -11.56461,5.69056 -11.56461,12.64582 v 8.97259 z m 2.16206,0 v -9.73994 c 0,-7.54949 -6.177,-13.72655 -13.72656,-13.72655 v 0 c -7.54976,0 -13.72677,6.17706 -13.72677,13.72655 v 9.73994 z m 28.16448,-26.74899 H 78.443683 c -0.545879,0 -0.992299,-0.44637 -0.992299,-0.99193 v -0.30997 c 0,-0.54556 0.44642,-0.99193 0.992299,-0.99193 h 83.782157 c 0.54567,0 0.9923,0.44637 0.9923,0.99193 v 0.30997 c 0,0.54556 -0.44663,0.99193 -0.9923,0.99193 M 144.16646,52.72411 H 95.589035 c -0.545885,0 -0.992298,-0.446366 -0.992298,-0.991926 v -0.309976 c 0,-0.54556 0.446413,-0.991926 0.992298,-0.991926 h 48.577425 c 0.54588,0 0.9923,0.446366 0.9923,0.991926 v 0.309976 c 0,0.54556 -0.44642,0.991926 -0.9923,0.991926 m -14.36825,-2.103038 v -4.974818 c 0,-5.204822 -4.25858,-9.463439 -9.46338,-9.463439 v 0 c -5.20502,0 -9.46359,4.258617 -9.46359,9.463439 v 4.974818 z M 156.81758,161.54862 H 83.851887 V 134.79963 H 156.81758 Z M 106.31311,53.121191 h 28.1143 v 79.218619 h -28.1143 z m 38.18701,-1.298803 H 96.169354 c 0,0 -5.874018,51.147422 -16.169304,82.977402 h 33.83909 12.99119 33.83909 c -10.29529,-31.82998 -16.1693,-82.977402 -16.1693,-82.977402" />
  <path
     id="blades"
     style="fill:#a467ac;fill-opacity:1;fill-rule:nonzero;stroke:#a467ac;stroke-width:0.90276843;stroke-miterlimit:4;stroke-dasharray:none;stroke-opacity:1"
     d="m 151.27187,61.698871 c -0.23514,-0.123991 -0.32016,-0.426219 -0.18971,-0.661801 0.13019,-0.235582 0.42673,-0.319276 0.66168,-0.189086 0.23513,0.123991 0.32016,0.426218 0.18992,0.661801 -0.1305,0.235582 -0.42673,0.319276 -0.66189,0.189086 m -3.20597,-1.777253 c -0.23515,-0.12399 -0.32016,-0.426218 -0.18971,-0.6618 0.13019,-0.235583 0.42673,-0.320826 0.66168,-0.190636 0.23513,0.123991 0.32016,0.426218 0.18992,0.6618 -0.1305,0.235583 -0.42673,0.319277 -0.66189,0.189086 m -3.20598,-1.775857 c -0.23513,-0.123991 -0.32016,-0.426218 -0.1897,-0.661801 0.1305,-0.235582 0.42673,-0.320826 0.66168,-0.189086 0.23514,0.123991 0.32015,0.426219 0.18992,0.661801 -0.1305,0.235582 -0.42673,0.320826 -0.6619,0.189086 m -3.20596,-1.777097 c -0.23514,-0.123991 -0.32016,-0.426219 -0.18971,-0.661801 0.1305,-0.235583 0.42673,-0.319276 0.66168,-0.189086 0.23513,0.123991 0.32016,0.426218 0.18991,0.661801 -0.1305,0.235582 -0.42673,0.320826 -0.66188,0.189086 m -3.20598,-1.777408 c -0.23513,-0.123991 -0.32015,-0.426218 -0.1897,-0.6618 0.1305,-0.235583 0.42673,-0.320827 0.66168,-0.189086 0.23513,0.12399 0.32016,0.426218 0.1899,0.6618 -0.1305,0.235583 -0.42673,0.319276 -0.66189,0.189086 m -3.20595,-1.777252 c -0.23514,-0.123991 -0.32016,-0.426218 -0.18971,-0.661801 0.13019,-0.235582 0.42673,-0.319276 0.66189,-0.189086 0.23494,0.123991 0.31996,0.426218 0.18971,0.661801 -0.1305,0.235582 -0.42673,0.320826 -0.66189,0.189086 m -15.71975,-7.805063 c -0.61372,-0.340974 -0.83546,-1.112817 -0.4952,-1.727346 0.34026,-0.613754 1.11353,-0.835388 1.72726,-0.494413 0.61372,0.339425 0.83548,1.112817 0.49521,1.727346 -0.34026,0.613754 -1.11353,0.835388 -1.72725,0.494413 M 111.5862,59.29872 c -0.23514,-0.123991 -0.31996,-0.426218 -0.18971,-0.661801 0.1305,-0.235582 0.42673,-0.319276 0.66189,-0.189086 0.23514,0.123991 0.32016,0.426218 0.18971,0.661801 -0.1305,0.235582 -0.42673,0.319276 -0.66189,0.189086 m -1.7771,3.205935 c -0.23513,-0.12399 -0.32016,-0.426218 -0.18992,-0.6618 0.1305,-0.235583 0.42673,-0.319276 0.66189,-0.189086 0.23514,0.123991 0.32016,0.426218 0.18971,0.661801 -0.13019,0.235582 -0.42673,0.319276 -0.66168,0.189085 m -1.7773,3.206091 c -0.23513,-0.12399 -0.32016,-0.426218 -0.18971,-0.6618 0.1302,-0.235583 0.42653,-0.319277 0.66168,-0.189086 0.23513,0.12399 0.32016,0.426218 0.18971,0.6618 -0.13019,0.235583 -0.42653,0.319277 -0.66168,0.189086 m -1.7773,3.205781 c -0.23513,-0.123991 -0.32016,-0.426218 -0.18971,-0.661801 0.13019,-0.235582 0.42653,-0.320826 0.66168,-0.189085 0.23513,0.12399 0.32016,0.426218 0.18971,0.6618 -0.13019,0.235583 -0.42653,0.320826 -0.66168,0.189086 m -1.7773,3.206091 c -0.23515,-0.123991 -0.32016,-0.426218 -0.18971,-0.661801 0.13019,-0.235582 0.42653,-0.319276 0.66168,-0.189086 0.23513,0.123991 0.32016,0.426218 0.1897,0.661801 -0.13019,0.235582 -0.42652,0.319276 -0.66167,0.189086 m -1.77731,3.205936 c -0.23513,-0.123991 -0.32016,-0.426219 -0.1897,-0.661801 0.13019,-0.235582 0.42653,-0.320826 0.66167,-0.189086 0.23514,0.123991 0.32016,0.426218 0.18971,0.661801 -0.13019,0.235582 -0.42653,0.320826 -0.66168,0.190635 m 26.16496,-47.198008 c 0.23513,0.123991 0.32016,0.426219 0.1897,0.661801 -0.13019,0.235583 -0.42652,0.320826 -0.66167,0.189086 -0.23515,-0.123991 -0.32016,-0.426218 -0.18971,-0.661801 0.13019,-0.235582 0.42653,-0.320826 0.66168,-0.189086 m 1.7773,-3.205935 c 0.23513,0.12399 0.32016,0.426218 0.1897,0.6618 -0.13019,0.235583 -0.42652,0.320826 -0.66167,0.189086 -0.23513,-0.123991 -0.32016,-0.426218 -0.18971,-0.6618 0.13019,-0.235583 0.42653,-0.319277 0.66168,-0.189086 m 1.7773,-3.205936 c 0.23515,0.123991 0.32016,0.426218 0.18971,0.661801 -0.13019,0.235582 -0.42653,0.320826 -0.66168,0.189085 -0.23513,-0.12399 -0.32016,-0.426218 -0.18971,-0.6618 0.13019,-0.235583 0.42653,-0.320826 0.66168,-0.189086 m 1.77731,-3.205936 c 0.23513,0.123991 0.32016,0.426218 0.1897,0.661801 -0.13019,0.235582 -0.42653,0.320826 -0.66167,0.189086 -0.23514,-0.123991 -0.32016,-0.426218 -0.18971,-0.661801 0.13019,-0.235582 0.42651,-0.319276 0.66168,-0.189086 m 1.7773,-3.206091 c 0.23513,0.123991 0.32016,0.426219 0.1897,0.661801 -0.13019,0.235582 -0.42652,0.319276 -0.66167,0.189086 -0.23515,-0.123991 -0.32016,-0.426218 -0.18971,-0.661801 0.13019,-0.235582 0.42653,-0.319276 0.66168,-0.189086 m 1.7773,-3.205935 c 0.23513,0.12399 0.32016,0.426218 0.1897,0.6618 -0.13019,0.235583 -0.42653,0.320826 -0.66189,0.189086 -0.23493,-0.123991 -0.31994,-0.426218 -0.18951,-0.6618 0.13019,-0.235583 0.42653,-0.319277 0.66168,-0.189086 m -32.82585,23.905106 c -0.23514,-0.123991 -0.32016,-0.426218 -0.18971,-0.661801 0.13019,-0.235582 0.42653,-0.319276 0.66168,-0.189086 0.23514,0.123991 0.32016,0.426219 0.1897,0.661801 -0.13019,0.235582 -0.42653,0.319276 -0.66167,0.189086 m -3.20597,-1.777253 c -0.23515,-0.12399 -0.32016,-0.426218 -0.18971,-0.6618 0.13019,-0.235583 0.42653,-0.319276 0.66168,-0.189086 0.23513,0.123991 0.32016,0.426218 0.1897,0.661801 -0.13019,0.235582 -0.42652,0.319276 -0.66167,0.189085 m -3.205976,-1.777097 c -0.235132,-0.123991 -0.320159,-0.426218 -0.189705,-0.661801 0.13019,-0.235582 0.426528,-0.319276 0.661676,-0.189085 0.235149,0.12399 0.32016,0.426218 0.189706,0.6618 -0.13019,0.235583 -0.426528,0.319276 -0.661677,0.189086 m -3.205966,-1.777407 c -0.235133,-0.123991 -0.32016,-0.426219 -0.189706,-0.661801 0.13019,-0.235582 0.426528,-0.319276 0.661676,-0.189086 0.235133,0.123991 0.32016,0.426218 0.189706,0.661801 -0.13019,0.235582 -0.426528,0.320826 -0.661676,0.189086 m -3.205973,-1.777253 c -0.235145,-0.12399 -0.320153,-0.426218 -0.189704,-0.6618 0.130252,-0.235583 0.426525,-0.320826 0.661674,-0.189086 0.235133,0.123991 0.320159,0.426218 0.189705,0.6618 -0.13019,0.235583 -0.426526,0.319277 -0.661673,0.189086 m -3.205968,-1.777252 c -0.235144,-0.123991 -0.320158,-0.426218 -0.189707,-0.661801 0.130252,-0.235582 0.426528,-0.320826 0.661672,-0.189086 0.235147,0.123991 0.320156,0.426219 0.189705,0.661801 -0.130236,0.235582 -0.426526,0.320826 -0.66167,0.189086 m 34.392931,17.137536 c 0.0962,-0.843137 -0.15205,-1.694798 -0.68597,-2.355049 l 16.86511,-30.42237 -2.09893,-1.163963 -16.86929,30.429654 c -0.83526,-0.09299 -1.67889,0.13949 -2.33679,0.66955 L 87.7331,24.547058 86.569523,26.646221 116.99179,43.511443 c -0.10307,0.843137 0.13763,1.696813 0.66608,2.361094 l -16.8693,30.429654 2.09893,1.163963 16.86511,-30.42237 c 0.85138,0.108492 1.71302,-0.139489 2.37992,-0.681949 l 30.42227,16.865222 1.16358,-2.099009 z m -39.434268,-12.714166 4.410383,-7.955556 23.417335,12.981831 -4.41038,7.955556 z m 44.740208,19.679966 4.41038,-7.955556 23.41734,12.981986 -4.41038,7.955557 z m -20.8094,28.957109 -7.955566,-4.41035 12.981756,-23.417358 7.95557,4.410351 z m 19.67995,-44.740201 -7.95556,-4.410351 12.98197,-23.4173574 7.95535,4.4103514 z" />
</svg>
