<?xml version="1.0" encoding="UTF-8" standalone="no"?>
<svg
   xmlns:svg="http://www.w3.org/2000/svg"
   xmlns="http://www.w3.org/2000/svg"
   id="air-balloon"
   version="1.1"
   viewBox="0 0 81 129.15"
   height="129.15387"
   width="81.000015">
  <path
     d="m 48.36116,39.948713 c 0,21.78916 -7.03045,55.01482 -7.86191,55.01482 -0.85746,0 -7.8619,-33.22566 -7.8619,-55.01482 0,-21.78545 3.51893,-39.45062014 7.8619,-39.45062014 4.34298,0 7.86191,17.66517014 7.86191,39.45062014 m 12.1652,0 c 0,21.78916 -17.91386,55.01482 -20.02597,55.01482 -2.18634,0 -20.02597,-33.22566 -20.02597,-55.01482 0,-21.78545 8.96435,-39.45062014 20.02597,-39.45062014 11.06161,0 20.02597,17.66517014 20.02597,39.45062014 m 11.86374,0.001 c 0,21.78546 -28.52635,55.01483 -31.88937,55.01483 -3.48182,0 -31.8930802,-33.22937 -31.8930802,-55.01483 0,-21.78915 14.2798802,-39.45061014 31.8930802,-39.45061014 17.60949,0 31.88937,17.66146014 31.88937,39.45061014 m 8.10988,0 c 0,21.78546 -35.77949,55.01483 -39.99997,55.01483 -4.36528,0 -40.00001021,-33.22937 -40.00001021,-55.01483 0,-21.78915 17.90645021,-39.45061014 40.00001021,-39.45061014 22.09352,0 39.99997,17.66146014 39.99997,39.45061014"
     style="fill:none;fill-opacity:1;fill-rule:nonzero;stroke:#783a6c;stroke-width:3;stroke-miterlimit:4;stroke-dasharray:none;stroke-opacity:1"
     id="path11262" />
  <path
     d="M 48.36116,95.951653 H 32.57423 l -5.6236,-11.62212 h 26.78914 z"
     style="fill:none;fill-opacity:1;fill-rule:nonzero;stroke:#783a6c;stroke-width:3;stroke-miterlimit:4;stroke-dasharray:none;stroke-opacity:1"
     id="path11266" />
  <path
     d="m 35.39421,114.88039 c 0,0.87602 -0.709,1.58502 -1.58872,1.58502 -0.87602,0 -1.58499,-0.709 -1.58499,-1.58502 v -2.66517 c 0,-0.87602 0.70897,-1.58502 1.58499,-1.58502 0.87972,0 1.58872,0.709 1.58872,1.58502 z m 13.23866,0 c 0,0.87602 -0.71271,1.58502 -1.58502,1.58502 -0.87972,0 -1.58869,-0.709 -1.58869,-1.58502 v -2.66517 c 0,-0.87602 0.70897,-1.58502 1.58869,-1.58502 0.87231,0 1.58502,0.709 1.58502,1.58502 z m -6.79767,0 c 0,0.87602 -0.7127,1.58502 -1.58872,1.58502 -0.87602,0 -1.58498,-0.709 -1.58498,-1.58502 v -2.66517 c 0,-0.87602 0.70896,-1.58502 1.58498,-1.58502 0.87602,0 1.58872,0.709 1.58872,1.58502 z m 9.6559,-0.99035 H 29.19711 v -1.34003 H 51.4911 Z M 38.696,99.547043 h -0.71641 v -3.59686 H 38.696 Z m 4.65105,0 h -0.71641 v -3.59686 h 0.71641 z m -8.38083,9.379717 2.19004,-7.94728 h 6.95622 l 1.31403,7.94728 z m 11.18411,0 0.70896,-0.11527 -1.53301,-9.265017 h -9.26132 l -2.53156,9.190787 0.69044,0.18935 h -5.02601 v 11.38828 c 0,4.60282 3.73054,8.33703 8.33707,8.33703 h 5.61989 c 4.60282,0 8.33703,-3.73421 8.33703,-8.33703 v -11.38828 z"
     style="fill:none;fill-opacity:1;fill-rule:nonzero;stroke:#783a6c;stroke-width:3;stroke-miterlimit:4;stroke-dasharray:none;stroke-opacity:1"
     id="path11288" />
</svg>
