<?xml version="1.0" encoding="UTF-8" standalone="no"?>
<svg
   xmlns:svg="http://www.w3.org/2000/svg"
   xmlns="http://www.w3.org/2000/svg"
   id="cloud"
   class="cloud"
   version="1.1"
   viewBox="0 0 250 123.77881"
   height="123.77881"
   width="250">
  <path
     d="M 197.95987,39.135899 C 191.37138,16.732902 170.92774,1.2576835 147.57746,0.99793954 v 0 C 125.84168,0.77528054 106.16239,13.814715 97.894513,33.917814 90.960406,28.596829 82.491998,25.659912 73.752329,25.545122 55.493406,25.363084 39.367181,37.412884 34.366792,54.974705 16.004178,55.27033 1.2123095,70.127068 0.99727381,88.490797 0.78885441,107.22188 15.804486,122.57535 34.535573,122.78368 l 174.014717,-0.83813 c 23.17493,-0.84829 41.27424,-20.32295 40.42597,-43.497879 -0.8483,-23.174934 -20.32296,-41.274258 -43.49789,-40.42597 -12.62331,0.462055 -24.36789,6.582358 -31.97811,16.664337"
     style="fill:none;stroke-width:6"/>
</svg>
