<?xml version="1.0" encoding="UTF-8" standalone="no"?>
<svg
   xmlns:dc="http://purl.org/dc/elements/1.1/"
   xmlns:cc="http://creativecommons.org/ns#"
   xmlns:rdf="http://www.w3.org/1999/02/22-rdf-syntax-ns#"
   xmlns:svg="http://www.w3.org/2000/svg"
   xmlns="http://www.w3.org/2000/svg"
   width="427.75095"
   height="175.05461"
   viewBox="0 0 427.75094 175.05462"
   version="1.1"
   id="cloud-pair" class="cloud-pair">
  <path
     d="m 372.70604,87.406837 c -6.58849,-22.403 -27.03213,-37.87822 -50.38241,-38.13796 v 0 c -21.73578,-0.22266 -41.41507,12.81677 -49.68295,32.91987 -6.93411,-5.32098 -15.40251,-8.2579 -24.14218,-8.37269 -18.25893,-0.18204 -34.38514,11.86776 -39.38553,29.429573 -18.36261,0.29563 -33.15448,15.15236 -33.36952,33.51609 -0.20842,18.73108 14.80721,34.08455 33.5383,34.29288 l 174.01471,-0.83813 c 23.17493,-0.84829 41.27425,-20.32295 40.42598,-43.49788 -0.8483,-23.17493 -20.32297,-41.274243 -43.4979,-40.425953 -12.62331,0.46205 -24.36789,6.58236 -31.97811,16.664333 M 250.66034,72.440304 c -4.82786,-18.672366 -22.11061,-32.148593 -42.17773,-31.414063 -2.56756,0.09398 -5.09505,0.434544 -7.5625,0.982422 C 194.28953,19.678158 173.8858,4.2620279 150.58221,4.0028034 128.84643,3.7801444 109.1665,16.819627 100.89862,36.922726 93.964509,31.601741 85.495707,28.664469 76.756038,28.549679 58.497115,28.367641 42.371662,40.417545 37.371273,57.979366 19.008659,58.274991 4.2171674,73.131262 4.0021317,91.494991 3.7937123,110.22607 18.808154,125.57962 37.539241,125.78795 l 139.683599,-0.67187"
     style="fill: none;stroke-width:6" />
</svg>
