<?xml version="1.0" encoding="UTF-8" standalone="no"?>
<svg
   xmlns:svg="http://www.w3.org/2000/svg"
   xmlns="http://www.w3.org/2000/svg"
   id="earth"
   class="earth"
   xml:space="preserve"
   style="enable-background:new 0 0 512 512;"
   viewBox="0 0 512 512"
   y="0px"
   x="0px"
   version="1.1">

		<path d="M 253.69531,2.0078125 C 168.85203,2.1407036 85.755522,48.513752 41.000847,120.77259 0.39577937,184.95972 -9.4111435,267.75901 16.040151,339.21379 c 23.730828,69.26794 79.075018,127.03623 147.459939,153.3107 58.8571,23.08549 126.06756,23.51678 184.82022,-0.0284 7.3061,-4.10088 2.60496,-16.48315 -5.60742,-14.63671 -48.90964,18.93574 -104.04809,21.92635 -154.3875,6.72236 -27.27012,-8.0541 -53.02366,-21.13735 -75.68672,-38.30244 3.13773,-16.38833 6.27816,-32.77614 9.41797,-49.16407 13.11868,-2.43815 24.59068,-13.33368 25.45117,-26.99609 1.77753,-9.9355 -6.6054,-18.59483 -4.75195,-28.37305 6.21166,-15.78949 -4.30327,-35.21936 -21.00781,-38.43554 -8.22243,-2.09846 -17.21674,-2.45039 -24.985493,-5.55252 -15.035962,-11.09624 -29.518171,-23.09744 -44.879745,-33.66233 -7.712358,-1.42255 -14.908542,4.10113 -22.367104,5.49773 -5.192695,1.33052 -13.199766,6.74929 -11.107505,-2.51726 -0.454443,-9.47324 -0.201717,-18.96288 0.357422,-28.42578 4.696432,3.56641 7.874575,10.90654 14.947266,9.41016 11.913213,-1.20631 23.931895,-2.69546 35.552734,-5.44922 6.469873,-3.22223 4.496267,-11.69087 0.05239,-15.77758 -3.503582,-5.13938 -7.009034,-10.2775 -10.511371,-15.41773 6.890525,-5.66939 15.439081,-9.62832 21.441406,-16.22461 9.771695,-16.34117 18.394982,-33.52932 28.860643,-49.35868 9.64017,-9.44104 19.79482,-20.42292 20.27412,-34.74289 1.47705,-16.487199 -8.56226,-32.552277 -22.73437,-40.275387 42.27917,-34.204341 96.47199,-53.19712 150.87304,-52.705078 -7.19812,8.696786 -13.89513,18.10123 -21.40429,26.359375 -22.64883,8.154763 -45.62783,15.578361 -68.08399,24.160156 -5.7864,5.823053 -6.62042,15.015221 -10.52682,22.090409 -3.46786,10.004805 -9.28415,19.440625 -11.43607,29.770915 2.25854,8.1562 9.52477,14.08247 13.71296,21.35743 5.26183,7.37035 10.52259,14.74145 15.78509,22.11132 -10.15026,9.3566 -16.15498,22.20713 -26.0957,31.79883 -16.22238,16.9687 -22.22339,43.65739 -12.32422,65.20313 9.47221,22.76756 35.37606,35.98063 59.24414,31.46875 7.05001,-0.58587 14.9112,-5.66523 21.73828,-1.83203 6.08395,3.79879 1.74684,12.00855 4.11914,17.59961 1.83631,9.90029 13.62403,14.54577 13.83398,25.04687 0.63315,11.08819 -7.55985,21.03655 -4.83007,32.30664 2.7525,15.93319 12.15383,29.64338 16.61112,45.07671 4.29121,9.70355 8.61007,22.87939 20.36349,25.42915 14.98857,2.12199 27.92171,-8.87178 37.46875,-19.12695 5.83185,-5.35865 6.18275,-13.47417 8.66992,-20.41797 4.80999,-6.21078 10.48704,-12.08221 12.21679,-20.07031 4.26926,-9.25837 14.76162,-14.68153 16.78711,-25.24805 3.11684,-10.09431 -3.87343,-18.9917 -3.29687,-28.91797 2.70387,-12.86049 15.30152,-20.03531 23.54109,-29.16414 7.06212,-7.5382 17.01388,-17.64165 12.34172,-28.87297 -5.58974,-10.28342 -18.74961,-7.33597 -27.9043,-11.44336 -10.24216,-7.60818 -13.53379,-20.85668 -18.86487,-31.83381 -5.83819,-14.37685 -10.82144,-32.4568 -27.17809,-38.07049 -9.40951,-3.3509 -19.42121,-6.46079 -29.26758,-8.41406 -6.05923,0.97035 -13.13582,3.49953 -14.84375,10.16211 -5.38601,-2.49676 -10.30684,-5.84653 -15.23242,-9.1289 3.36703,-8.66556 -4.28231,-17.00633 -12.60938,-18.16797 -11.84127,-2.29791 -24.05531,-0.16103 -36.06905,0.38276 -4.28304,1.31437 -0.0524,-4.35853 0.44014,-6.45894 5.36635,-11.41444 18.62994,-16.73444 30.71289,-15.2207 8.19437,0.0458 10.4183,-12.59281 2.70313,-15.35351 -18.48815,-3.69461 -38.55973,5.80925 -47.43359,22.51953 -5.75505,-8.06661 -11.51228,-16.13168 -17.27149,-24.19532 5.14393,-12.47539 10.29171,-24.949195 15.4375,-37.423823 22.46014,-8.101356 45.2793,-15.419226 67.52149,-23.998047 10.84788,-12.357295 20.62525,-25.74231 31.08007,-38.476562 71.23482,6.076704 138.75966,46.049948 177.64753,106.154222 14.25776,21.63019 24.88559,45.63101 31.36419,70.71297 -7.76422,5.6262 -13.77315,13.88225 -13.5453,23.81639 -0.0207,10.76554 -4.39337,-2.10186 -5.77664,-5.99226 -3.2037,-9.63216 -6.36932,-19.60341 -14.22532,-26.57916 -5.81666,-7.79249 -13.34691,-16.52389 -23.99961,-16.39146 -8.39606,0.89165 -19.94867,-3.09889 -25.85352,5.16016 -4.23926,5.50464 -2.20016,13.28283 2.25196,18.01757 -10.7236,9.43305 -23.19104,16.85835 -36.61524,21.74024 -7.164,-14.05456 -14.94471,-27.95841 -21.72656,-42.10742 0.38335,-6.26927 0.92312,-13.76674 -5.40511,-17.41623 -8.21009,-6.59853 -14.09894,-17.09168 -25.20896,-19.06997 -5.94965,-1.95716 -15.06234,-7.51109 -19.59492,-0.15247 -3.73823,5.82496 1.83454,12.61626 8.01398,13.04107 6.54323,2.05488 13.18015,3.95564 17.40336,9.79366 3.8634,4.35133 10.8133,7.38255 8.7936,14.2512 0.0311,8.7267 7.19598,15.54202 10.16575,23.43845 6.37181,11.2151 11.28087,23.44884 18.41824,34.13577 6.31781,5.117 13.96657,-1.46826 20.41992,-3.16601 16.09876,-6.98317 31.19557,-16.41273 42.80664,-29.6211 2.39949,-4.17186 -0.3612,-8.81406 -3.02539,-12.05664 5.55899,-0.23622 12.75439,-1.18518 15.84671,4.76956 5.48945,6.84055 12.85947,12.66281 14.37583,21.84438 4.36537,10.70245 7.17071,22.214 12.41808,32.46223 4.93577,5.70851 12.63788,1.09965 15.89368,-3.95293 6.99342,-5.50075 9.3464,-14.19653 12.27234,-22.12714 4.57116,19.29863 3.78992,39.53909 2.27344,59.20117 -5.97255,64.07099 -39.04176,125.15496 -89.98438,164.58398 -6.16298,5.33412 0.4235,16.3137 8.03906,13.35156 15.46286,-10.47675 28.59387,-24.38806 40.78711,-38.60351 C 500.51417,359.8871 520.66735,278.49606 504.6319,204.14304 489.30151,128.7268 437.43716,61.31145 367.82664,27.956538 332.45878,10.725008 293.06352,1.7033859 253.69531,2.0078125 Z M 94.263672,82.992188 c 14.596958,4.100691 24.110118,22.084652 16.685548,35.972652 -5.73172,10.23215 -16.936017,16.37655 -21.285718,27.6026 -7.642968,13.09253 -14.907974,26.52494 -22.782643,39.40912 -8.420416,6.62329 -18.158767,11.84844 -25.86914,19.23242 -4.373168,7.76392 5.080253,14.07942 8.087887,20.37187 6.4657,5.70248 -3.040313,4.42637 -7.109953,5.47386 -4.282646,0.99174 -8.354278,1.22508 -11.024755,-2.83362 -2.856418,-3.47234 -8.551992,-5.87501 -9.734429,-9.89882 C 29.437107,166.8276 55.025754,118.25925 93.121094,82.613281 l 0.949169,0.314767 z M 265.55859,120.07422 c -7.965,0.0382 -10.3272,12.24731 -2.91406,15.22461 6.52414,3.95701 15.2507,-4.00913 11.11524,-10.80078 -1.53256,-2.9446 -4.97351,-4.52992 -8.20118,-4.42383 z m -45.53711,52.18359 c 5.21406,-0.80289 4.59531,1.68468 3.4668,5.875 0.56286,7.68226 9.86329,9.04915 14.61133,13.55274 8.38568,5.29266 19.57225,13.10539 29.56836,7.23242 3.32945,-1.66797 5.48023,-6.12542 8.01374,-7.33389 8.67844,3.11419 19.05723,3.63306 26.31634,9.76944 9.0603,11.98514 11.83979,27.30752 18.89648,40.41406 5.44431,12.8483 15.03757,26.88304 30.13281,28.53515 2.69602,1.31935 12.35112,-0.30447 7.81484,3.94939 -11.25883,15.12839 -31.02625,24.93945 -34.56288,44.93929 -2.31705,9.42453 3.51119,18.01535 3.72265,27.20117 -1.84846,8.62395 -11.24158,12.5673 -14.57846,20.49224 -2.65531,5.51018 -3.80594,11.89492 -8.82388,15.98627 -5.70618,5.48553 -6.82428,13.37847 -8.83203,20.58399 -5.48114,7.49871 -13.17027,14.29268 -22.25586,16.89062 -4.87295,0.3865 -6.09641,-6.3844 -8.32422,-9.81445 -4.98954,-12.18461 -9.24275,-24.65179 -14.93164,-36.55078 -3.28362,-7.34496 -4.90172,-15.99893 -1.04019,-23.45086 5.49254,-13.65186 3.37393,-30.67674 -7.80226,-40.88845 -7.19641,-5.66039 -1.77013,-15.6508 -5.972,-22.75054 -5.3303,-11.78133 -19.83531,-16.10746 -31.6635,-12.53332 -13.86286,4.67244 -30.5681,4.00177 -41.8951,-6.17175 -16.5659,-13.82685 -17.66902,-40.53538 -4.33789,-56.94336 7.91722,-9.63264 16.34362,-18.83386 23.18555,-29.3125 3.00116,-5.34911 8.6588,-8.02072 14.63476,-8.25 8.20739,-0.97261 16.52272,-0.88841 24.65625,-1.42188 z M 48.492188,281.1543 c 14.664371,10.69263 28.597136,22.62008 43.675781,32.61523 9.890421,2.83858 20.801551,2.60585 30.220701,6.85156 6.38251,3.77122 7.34445,12.21195 4.55274,18.53907 -2.89995,10.14194 3.95135,19.25234 4.66015,29.03125 -0.0595,7.87113 -7.69341,12.73921 -14.75515,13.79556 -5.94815,0.64965 -10.55867,5.30509 -10.37242,11.43378 -2.63927,13.77574 -5.27724,27.55172 -7.917349,41.3273 C 56.565105,397.42743 28.102595,345.089 20.433594,289.36719 c 9.07501,-2.94814 18.149272,-5.89858 27.224609,-8.84571 l 0.796629,0.60447 z m 346.189452,39.60547 c -8.48693,1.8172 -8.6718,12.41526 -13.34766,18.3457 -5.15921,6.58166 -15.28278,6.92947 -20.02929,14.2207 -5.69895,6.80952 -4.13436,15.90335 -3.49219,23.96485 -3.6797,9.95968 -8.86743,21.58988 -3.05469,31.86718 4.34067,8.59401 15.36075,15.68399 24.57422,9.47266 12.99409,-9.67474 15.54774,-27.00687 20.34906,-41.38512 2.57515,-10.50464 7.18344,-20.70406 8.61579,-31.38441 -2.68113,-7.57875 -2.6202,-16.67059 -7.50391,-23.18945 -1.65574,-1.45101 -3.92316,-2.16397 -6.11133,-1.91211 z m -6.1875,37.94531 c -5.55897,15.38836 -7.26816,32.77448 -17.06836,46.33008 -6.54253,-5.51949 -1.53072,-14.07779 0.9043,-20.29297 3.35491,-6.61265 -0.15138,-13.83947 1.10547,-20.61328 3.7426,-5.39755 11.47037,-6.12405 16.45312,-10.12305 -0.46484,1.56641 -0.92969,3.13281 -1.39453,4.69922 z m -10.10547,102.35547 c -7.8991,0.15162 -10.86893,12.18424 -3.23828,15.40039 7.69017,4.21692 16.10529,-7.03568 9.56641,-13.03906 -1.6272,-1.66799 -4.00683,-2.55099 -6.32813,-2.36133 z" style="fill:none; stroke-width: 6px"/>
</svg>