<?xml version="1.0" encoding="UTF-8" standalone="no"?>
<svg
   xmlns:svg="http://www.w3.org/2000/svg"
   xmlns="http://www.w3.org/2000/svg"
   xml:space="preserve"
   style="enable-background:new 0 0 60 60;"
   viewBox="0 0 60 60"
   y="0px"
   x="0px"
   version="1.1"
   id="location"
   class="location">
<path
   d="M 30.002056,53.554746 45.203435,32.495505 C 50.905067,25.204562 50.080639,13.220268 43.438645,6.8503157 39.849608,3.4068156 35.07744,1.5106569 30.002056,1.5106569 c -5.075383,0 -9.847553,1.8961587 -13.436588,5.3387084 C 9.9234731,13.219317 9.0990452,25.20361 14.777887,32.466041 Z m 0.175389,-40.638624 c 3.82487,0 6.936292,2.985381 6.936292,6.653188 0,3.667809 -3.111422,6.653189 -6.936292,6.653189 -3.824869,0 -6.936292,-2.98538 -6.936292,-6.653189 0,-3.667807 3.111423,-6.653188 6.936292,-6.653188 z"
   id="path2014" style="fill: none; stroke-width: 2px" />
<path
   id="path2586"
   d="M 41.202291,47.122557 A 26.07257,6.4890228 0 0 1 56.07257,52.98209 v 0 A 26.07257,6.4890228 0 0 1 30,59.471113 26.07257,6.4890228 0 0 1 3.9274302,52.98209 26.07257,6.4890228 0 0 1 18.800833,47.122188" style="fill: none;  stroke-width: 2px" /></svg>