<?xml version="1.0" encoding="UTF-8" standalone="no"?>
<svg
   xmlns:svg="http://www.w3.org/2000/svg"
   xmlns="http://www.w3.org/2000/svg"
   version="1.1"
   viewBox="0 0 520 517"   
   class="sun"
   style="enable-background:new 0 0 520 517;">
  <path
     d="m 361.67404,258.45129 c 0,56.03301 -45.42374,101.45674 -101.45677,101.45674 -56.03302,0 -101.45675,-45.42373 -101.45675,-101.45674 0,-56.03305 45.42373,-101.45677 101.45675,-101.45677 56.03303,0 101.45677,45.42372 101.45677,101.45677 z" style="fill: none; stroke-width: 12px"/>
  <path
     d="M 268.04754,0.16959132 241.99533,121.37671 c 6.61258,-0.98514 13.39003,-1.5132 20.27684,-1.5132 10.11542,0 19.96925,1.11376 29.45691,3.20292 z M 86.438636,69.751461 152.08618,175.90225 c 9.99798,-13.68379 22.46366,-25.47312 36.7707,-34.627 z M 450.4887,78.023601 342.37075,145.89051 c 14.34277,10.42883 26.57972,23.56569 35.93844,38.68739 z M 129.48911,224.92984 0.16116949,249.67062 127.24452,275.57152 c -0.89431,-6.30901 -1.36187,-12.76253 -1.36187,-19.31849 0,-10.78184 1.24144,-21.26305 3.60646,-31.32319 z m 267.88637,12.68564 c 0.83304,6.09479 1.261,12.31404 1.261,18.63755 0,10.04502 -1.09154,19.82842 -3.15251,29.25513 L 520.27232,262.83544 Z M 146.10906,327.7516 73.273823,435.36515 182.90496,367.1704 c -14.72562,-10.55379 -27.25908,-23.95802 -36.7959,-39.4188 z m 226.0969,9.23051 c -10.29615,14.00035 -23.20773,25.9503 -38.00648,35.1566 l 107.18482,73.91971 z m -141.98835,52.38185 24.63989,127.36078 28.39767,-125.72149 c -6.84489,1.05783 -13.84184,1.63931 -20.983,1.63931 -10.22655,0 -20.20113,-1.14456 -29.78476,-3.2786 z" style="fill: none; stroke-width: 12px" />
</svg>
